<?xml version="1.0" standalone="no"?>
<!DOCTYPE svg PUBLIC "-//W3C//DTD SVG 1.1//EN"
 "http://www.w3.org/Graphics/SVG/1.1/DTD/svg11.dtd">
<svg xmlns="http://www.w3.org/2000/svg" version="1.1"
 width="100%" height="100%">
<g stroke-width="1pt" stroke-linecap="round" stroke-linejoin="round">
<defs>
  <clipPath id="window0">
    <path d="M0 0 L 118 0 L 118 396 L 0 396 Z"/>
  </clipPath>
</defs>
<g clip-path = "url(#window0)">
<text x="114" y="55" font-family="Verdana,sans-serif" font-size="10pt" fill="rgb(0,0,0)" text-anchor="end" xml:space="preserve">clk</text>
<text x="114" y="88" font-family="Verdana,sans-serif" font-size="10pt" fill="rgb(0,0,0)" text-anchor="end" xml:space="preserve">state</text>
<text x="114" y="121" font-family="Verdana,sans-serif" font-size="10pt" fill="rgb(0,0,0)" text-anchor="end" xml:space="preserve">pkt_data[15:0]</text>
<text x="114" y="154" font-family="Verdana,sans-serif" font-size="10pt" fill="rgb(0,0,0)" text-anchor="end" xml:space="preserve">rd_mux_sel</text>
<text x="114" y="187" font-family="Verdana,sans-serif" font-size="10pt" fill="rgb(0,0,0)" text-anchor="end" xml:space="preserve">req</text>
<text x="114" y="220" font-family="Verdana,sans-serif" font-size="10pt" fill="rgb(0,0,0)" text-anchor="end" xml:space="preserve">rd</text>
<text x="114" y="253" font-family="Verdana,sans-serif" font-size="10pt" fill="rgb(0,0,0)" text-anchor="end" xml:space="preserve">address[15:0]</text>
<text x="114" y="286" font-family="Verdana,sans-serif" font-size="10pt" fill="rgb(0,0,0)" text-anchor="end" xml:space="preserve">space_id[11:0]</text>
<text x="114" y="319" font-family="Verdana,sans-serif" font-size="10pt" fill="rgb(0,0,0)" text-anchor="end" xml:space="preserve">internal_ack</text>
<text x="114" y="352" font-family="Verdana,sans-serif" font-size="10pt" fill="rgb(0,0,0)" text-anchor="end" xml:space="preserve">ack</text>
<text x="114" y="385" font-family="Verdana,sans-serif" font-size="10pt" fill="rgb(0,0,0)" text-anchor="end" xml:space="preserve">rd_data</text>
</g>
<defs>
  <clipPath id="window1">
    <path d="M118 0 L 1344 0 L 1344 396 L 118 396 Z"/>
  </clipPath>
</defs>
<g clip-path = "url(#window1)">
<line x1="199" y1="0" x2="199" y2="396" stroke="rgb(192,192,192)" stroke-dasharray="12, 4" fill="none"/>
<line x1="362" y1="0" x2="362" y2="396" stroke="rgb(192,192,192)" stroke-dasharray="12, 4" fill="none"/>
<line x1="525" y1="0" x2="525" y2="396" stroke="rgb(192,192,192)" stroke-dasharray="12, 4" fill="none"/>
<line x1="688" y1="0" x2="688" y2="396" stroke="rgb(192,192,192)" stroke-dasharray="12, 4" fill="none"/>
<line x1="851" y1="0" x2="851" y2="396" stroke="rgb(192,192,192)" stroke-dasharray="12, 4" fill="none"/>
<line x1="1013" y1="0" x2="1013" y2="396" stroke="rgb(192,192,192)" stroke-dasharray="12, 4" fill="none"/>
<line x1="1176" y1="0" x2="1176" y2="396" stroke="rgb(192,192,192)" stroke-dasharray="12, 4" fill="none"/>
<line x1="1339" y1="0" x2="1339" y2="396" stroke="rgb(192,192,192)" stroke-dasharray="12, 4" fill="none"/>
<line x1="117" y1="62" x2="196" y2="62" stroke="rgb(0,0,0)" fill="none"/>
<line x1="196" y1="62" x2="202" y2="37" stroke="rgb(0,0,0)" fill="none"/>
<line x1="202" y1="37" x2="278" y2="37" stroke="rgb(0,0,0)" fill="none"/>
<line x1="278" y1="37" x2="284" y2="62" stroke="rgb(0,0,0)" fill="none"/>
<line x1="284" y1="62" x2="359" y2="62" stroke="rgb(0,0,0)" fill="none"/>
<line x1="359" y1="62" x2="365" y2="37" stroke="rgb(0,0,0)" fill="none"/>
<line x1="365" y1="37" x2="441" y2="37" stroke="rgb(0,0,0)" fill="none"/>
<line x1="441" y1="37" x2="447" y2="62" stroke="rgb(0,0,0)" fill="none"/>
<line x1="447" y1="62" x2="522" y2="62" stroke="rgb(0,0,0)" fill="none"/>
<line x1="522" y1="62" x2="528" y2="37" stroke="rgb(0,0,0)" fill="none"/>
<line x1="528" y1="37" x2="603" y2="37" stroke="rgb(0,0,0)" fill="none"/>
<line x1="603" y1="37" x2="609" y2="62" stroke="rgb(0,0,0)" fill="none"/>
<line x1="609" y1="62" x2="685" y2="62" stroke="rgb(0,0,0)" fill="none"/>
<line x1="685" y1="62" x2="691" y2="37" stroke="rgb(0,0,0)" fill="none"/>
<line x1="691" y1="37" x2="766" y2="37" stroke="rgb(0,0,0)" fill="none"/>
<line x1="766" y1="37" x2="772" y2="62" stroke="rgb(0,0,0)" fill="none"/>
<line x1="772" y1="62" x2="848" y2="62" stroke="rgb(0,0,0)" fill="none"/>
<line x1="848" y1="62" x2="854" y2="37" stroke="rgb(0,0,0)" fill="none"/>
<line x1="854" y1="37" x2="929" y2="37" stroke="rgb(0,0,0)" fill="none"/>
<line x1="929" y1="37" x2="935" y2="62" stroke="rgb(0,0,0)" fill="none"/>
<line x1="935" y1="62" x2="1010" y2="62" stroke="rgb(0,0,0)" fill="none"/>
<line x1="1010" y1="62" x2="1016" y2="37" stroke="rgb(0,0,0)" fill="none"/>
<line x1="1016" y1="37" x2="1092" y2="37" stroke="rgb(0,0,0)" fill="none"/>
<line x1="1092" y1="37" x2="1098" y2="62" stroke="rgb(0,0,0)" fill="none"/>
<line x1="1098" y1="62" x2="1173" y2="62" stroke="rgb(0,0,0)" fill="none"/>
<line x1="1173" y1="62" x2="1179" y2="37" stroke="rgb(0,0,0)" fill="none"/>
<line x1="1179" y1="37" x2="1255" y2="37" stroke="rgb(0,0,0)" fill="none"/>
<line x1="1255" y1="37" x2="1261" y2="62" stroke="rgb(0,0,0)" fill="none"/>
<line x1="1261" y1="62" x2="1336" y2="62" stroke="rgb(0,0,0)" fill="none"/>
<line x1="1336" y1="62" x2="1342" y2="37" stroke="rgb(0,0,0)" fill="none"/>
<line x1="1342" y1="37" x2="1344" y2="37" stroke="rgb(0,0,0)" fill="none"/>
<text x="222" y="89" font-family="Arial,sans-serif" font-size="10pt" fill="rgb(0,0,0)" text-anchor="start" xml:space="preserve">space</text>
<line x1="118" y1="95" x2="359" y2="95" stroke="rgb(0,0,0)" fill="none"/>
<line x1="118" y1="70" x2="359" y2="70" stroke="rgb(0,0,0)" fill="none"/>
<text x="222" y="89" font-family="Arial,sans-serif" font-size="10pt" fill="rgb(0,0,0)" text-anchor="start" xml:space="preserve">space</text>
<line x1="359" y1="95" x2="365" y2="70" stroke="rgb(0,0,0)" fill="none"/>
<line x1="359" y1="70" x2="365" y2="95" stroke="rgb(0,0,0)" fill="none"/>
<line x1="365" y1="95" x2="520" y2="95" stroke="rgb(0,0,0)" fill="none"/>
<line x1="365" y1="70" x2="520" y2="70" stroke="rgb(0,0,0)" fill="none"/>
<text x="419" y="89" font-family="Arial,sans-serif" font-size="10pt" fill="rgb(0,0,0)" text-anchor="start" xml:space="preserve">address</text>
<line x1="520" y1="95" x2="526" y2="70" stroke="rgb(0,0,0)" fill="none"/>
<line x1="520" y1="70" x2="526" y2="95" stroke="rgb(0,0,0)" fill="none"/>
<line x1="526" y1="95" x2="1173" y2="95" stroke="rgb(0,0,0)" fill="none"/>
<line x1="526" y1="70" x2="1173" y2="70" stroke="rgb(0,0,0)" fill="none"/>
<text x="824" y="89" font-family="Arial,sans-serif" font-size="10pt" fill="rgb(0,0,0)" text-anchor="start" xml:space="preserve">wait_ack</text>
<line x1="1173" y1="95" x2="1179" y2="70" stroke="rgb(0,0,0)" fill="none"/>
<line x1="1173" y1="70" x2="1179" y2="95" stroke="rgb(0,0,0)" fill="none"/>
<line x1="1179" y1="95" x2="1339" y2="95" stroke="rgb(0,0,0)" fill="none"/>
<line x1="1179" y1="70" x2="1339" y2="70" stroke="rgb(0,0,0)" fill="none"/>
<text x="1240" y="89" font-family="Arial,sans-serif" font-size="10pt" fill="rgb(0,0,0)" text-anchor="start" xml:space="preserve">space</text>
<polygon points="119,128 197,128 197,103 119,103" fill="rgb(128,128,128)"/>
<line x1="118" y1="128" x2="196" y2="128" stroke="rgb(0,0,0)" fill="none"/>
<line x1="118" y1="103" x2="196" y2="103" stroke="rgb(0,0,0)" fill="none"/>
<polygon points="199,115 196,128 196,103" fill="rgb(128,128,128)"/>
<line x1="196" y1="128" x2="202" y2="103" stroke="rgb(0,0,0)" fill="none"/>
<line x1="196" y1="103" x2="202" y2="128" stroke="rgb(0,0,0)" fill="none"/>
<line x1="202" y1="128" x2="359" y2="128" stroke="rgb(0,0,0)" fill="none"/>
<line x1="202" y1="103" x2="359" y2="103" stroke="rgb(0,0,0)" fill="none"/>
<text x="263" y="122" font-family="Arial,sans-serif" font-size="10pt" fill="rgb(0,0,0)" text-anchor="start" xml:space="preserve">space</text>
<line x1="359" y1="128" x2="365" y2="103" stroke="rgb(0,0,0)" fill="none"/>
<line x1="359" y1="103" x2="365" y2="128" stroke="rgb(0,0,0)" fill="none"/>
<line x1="365" y1="128" x2="522" y2="128" stroke="rgb(0,0,0)" fill="none"/>
<line x1="365" y1="103" x2="522" y2="103" stroke="rgb(0,0,0)" fill="none"/>
<text x="420" y="122" font-family="Arial,sans-serif" font-size="10pt" fill="rgb(0,0,0)" text-anchor="start" xml:space="preserve">address</text>
<polygon points="525,115 529,128 529,103" fill="rgb(128,128,128)"/>
<line x1="522" y1="128" x2="528" y2="103" stroke="rgb(0,0,0)" fill="none"/>
<line x1="522" y1="103" x2="528" y2="128" stroke="rgb(0,0,0)" fill="none"/>
<polygon points="529,128 1340,128 1340,103 529,103" fill="rgb(128,128,128)"/>
<line x1="528" y1="128" x2="1339" y2="128" stroke="rgb(0,0,0)" fill="none"/>
<line x1="528" y1="103" x2="1339" y2="103" stroke="rgb(0,0,0)" fill="none"/>
<line x1="118" y1="161" x2="522" y2="161" stroke="rgb(0,0,255)" fill="none"/>
<line x1="522" y1="161" x2="528" y2="136" stroke="rgb(0,0,255)" fill="none"/>
<line x1="528" y1="136" x2="1173" y2="136" stroke="rgb(0,0,255)" fill="none"/>
<line x1="1173" y1="136" x2="1179" y2="161" stroke="rgb(0,0,255)" fill="none"/>
<line x1="1179" y1="161" x2="1339" y2="161" stroke="rgb(0,0,255)" fill="none"/>
<line x1="118" y1="194" x2="522" y2="194" stroke="rgb(0,0,255)" fill="none"/>
<line x1="522" y1="194" x2="528" y2="169" stroke="rgb(0,0,255)" fill="none"/>
<line x1="528" y1="169" x2="1173" y2="169" stroke="rgb(0,0,255)" fill="none"/>
<line x1="1173" y1="169" x2="1179" y2="194" stroke="rgb(0,0,255)" fill="none"/>
<line x1="1179" y1="194" x2="1339" y2="194" stroke="rgb(0,0,255)" fill="none"/>
<line x1="118" y1="227" x2="522" y2="227" stroke="rgb(0,0,255)" fill="none"/>
<line x1="522" y1="227" x2="528" y2="202" stroke="rgb(0,0,255)" fill="none"/>
<line x1="528" y1="202" x2="1173" y2="202" stroke="rgb(0,0,255)" fill="none"/>
<line x1="1173" y1="202" x2="1179" y2="227" stroke="rgb(0,0,255)" fill="none"/>
<line x1="1179" y1="227" x2="1339" y2="227" stroke="rgb(0,0,255)" fill="none"/>
<polygon points="119,260 523,260 523,235 119,235" fill="rgb(128,128,128)"/>
<line x1="118" y1="260" x2="522" y2="260" stroke="rgb(0,0,255)" fill="none"/>
<line x1="118" y1="235" x2="522" y2="235" stroke="rgb(0,0,255)" fill="none"/>
<polygon points="525,247 522,260 522,235" fill="rgb(128,128,128)"/>
<line x1="522" y1="260" x2="528" y2="235" stroke="rgb(0,0,255)" fill="none"/>
<line x1="522" y1="235" x2="528" y2="260" stroke="rgb(0,0,255)" fill="none"/>
<line x1="528" y1="260" x2="1173" y2="260" stroke="rgb(0,0,255)" fill="none"/>
<line x1="528" y1="235" x2="1173" y2="235" stroke="rgb(0,0,255)" fill="none"/>
<polygon points="1176,247 1180,260 1180,235" fill="rgb(128,128,128)"/>
<line x1="1173" y1="260" x2="1179" y2="235" stroke="rgb(0,0,255)" fill="none"/>
<line x1="1173" y1="235" x2="1179" y2="260" stroke="rgb(0,0,255)" fill="none"/>
<polygon points="1180,260 1342,260 1342,235 1180,235" fill="rgb(128,128,128)"/>
<line x1="1179" y1="260" x2="1341" y2="260" stroke="rgb(0,0,255)" fill="none"/>
<line x1="1179" y1="235" x2="1341" y2="235" stroke="rgb(0,0,255)" fill="none"/>
<polygon points="119,293 523,293 523,268 119,268" fill="rgb(128,128,128)"/>
<line x1="118" y1="293" x2="522" y2="293" stroke="rgb(0,0,255)" fill="none"/>
<line x1="118" y1="268" x2="522" y2="268" stroke="rgb(0,0,255)" fill="none"/>
<polygon points="525,280 522,293 522,268" fill="rgb(128,128,128)"/>
<line x1="522" y1="293" x2="528" y2="268" stroke="rgb(0,0,255)" fill="none"/>
<line x1="522" y1="268" x2="528" y2="293" stroke="rgb(0,0,255)" fill="none"/>
<line x1="528" y1="293" x2="1173" y2="293" stroke="rgb(0,0,255)" fill="none"/>
<line x1="528" y1="268" x2="1173" y2="268" stroke="rgb(0,0,255)" fill="none"/>
<polygon points="1176,280 1180,293 1180,268" fill="rgb(128,128,128)"/>
<line x1="1173" y1="293" x2="1179" y2="268" stroke="rgb(0,0,255)" fill="none"/>
<line x1="1173" y1="268" x2="1179" y2="293" stroke="rgb(0,0,255)" fill="none"/>
<polygon points="1180,293 1340,293 1340,268 1180,268" fill="rgb(128,128,128)"/>
<line x1="1179" y1="293" x2="1339" y2="293" stroke="rgb(0,0,255)" fill="none"/>
<line x1="1179" y1="268" x2="1339" y2="268" stroke="rgb(0,0,255)" fill="none"/>
<line x1="118" y1="326" x2="848" y2="326" stroke="rgb(0,0,0)" fill="none"/>
<line x1="848" y1="326" x2="854" y2="301" stroke="rgb(0,0,0)" fill="none"/>
<line x1="854" y1="301" x2="1010" y2="301" stroke="rgb(0,0,0)" fill="none"/>
<line x1="1010" y1="301" x2="1016" y2="326" stroke="rgb(0,0,0)" fill="none"/>
<line x1="1016" y1="326" x2="1339" y2="326" stroke="rgb(0,0,0)" fill="none"/>
<line x1="118" y1="359" x2="1010" y2="359" stroke="rgb(0,0,255)" fill="none"/>
<line x1="1010" y1="359" x2="1016" y2="334" stroke="rgb(0,0,255)" fill="none"/>
<line x1="1016" y1="334" x2="1173" y2="334" stroke="rgb(0,0,255)" fill="none"/>
<line x1="1173" y1="334" x2="1179" y2="359" stroke="rgb(0,0,255)" fill="none"/>
<line x1="1179" y1="359" x2="1341" y2="359" stroke="rgb(0,0,255)" fill="none"/>
<polygon points="119,392 1011,392 1011,367 119,367" fill="rgb(128,128,128)"/>
<line x1="118" y1="392" x2="1010" y2="392" stroke="rgb(0,0,255)" fill="none"/>
<line x1="118" y1="367" x2="1010" y2="367" stroke="rgb(0,0,255)" fill="none"/>
<polygon points="1013,379 1010,392 1010,367" fill="rgb(128,128,128)"/>
<line x1="1010" y1="392" x2="1016" y2="367" stroke="rgb(0,0,255)" fill="none"/>
<line x1="1010" y1="367" x2="1016" y2="392" stroke="rgb(0,0,255)" fill="none"/>
<line x1="1016" y1="392" x2="1175" y2="392" stroke="rgb(0,0,255)" fill="none"/>
<line x1="1016" y1="367" x2="1175" y2="367" stroke="rgb(0,0,255)" fill="none"/>
<polygon points="1178,379 1182,392 1182,367" fill="rgb(128,128,128)"/>
<line x1="1175" y1="392" x2="1181" y2="367" stroke="rgb(0,0,255)" fill="none"/>
<line x1="1175" y1="367" x2="1181" y2="392" stroke="rgb(0,0,255)" fill="none"/>
<polygon points="1182,392 1345,392 1345,367 1182,367" fill="rgb(128,128,128)"/>
<line x1="1181" y1="392" x2="1344" y2="392" stroke="rgb(0,0,255)" fill="none"/>
<line x1="1181" y1="367" x2="1344" y2="367" stroke="rgb(0,0,255)" fill="none"/>
<polygon points="788,35 786,39 786,44 789,56 789,59 788,63 788,63 790,59 790,54 787,42 787,39 788,35" stroke="rgb(0,0,0)" fill="rgb(0,0,0)"/>
<polygon points="792,35 790,39 790,44 793,56 793,59 792,63 792,63 794,59 794,54 791,42 791,39 792,35" stroke="rgb(0,0,0)" fill="rgb(0,0,0)"/>
<polygon points="792,35 790,39 790,44 793,56 793,59 792,63 788,63 790,59 790,54 787,42 787,39 788,35" stroke="rgb(255,255,255)" fill="rgb(255,255,255)"/>
<polygon points="788,68 786,72 786,77 789,89 789,92 788,96 788,96 790,92 790,87 787,75 787,72 788,68" stroke="rgb(0,0,0)" fill="rgb(0,0,0)"/>
<polygon points="792,68 790,72 790,77 793,89 793,92 792,96 792,96 794,92 794,87 791,75 791,72 792,68" stroke="rgb(0,0,0)" fill="rgb(0,0,0)"/>
<polygon points="792,68 790,72 790,77 793,89 793,92 792,96 788,96 790,92 790,87 787,75 787,72 788,68" stroke="rgb(255,255,255)" fill="rgb(255,255,255)"/>
<polygon points="788,101 786,105 786,110 789,122 789,125 788,129 788,129 790,125 790,120 787,108 787,105 788,101" stroke="rgb(0,0,0)" fill="rgb(0,0,0)"/>
<polygon points="792,101 790,105 790,110 793,122 793,125 792,129 792,129 794,125 794,120 791,108 791,105 792,101" stroke="rgb(0,0,0)" fill="rgb(0,0,0)"/>
<polygon points="792,101 790,105 790,110 793,122 793,125 792,129 788,129 790,125 790,120 787,108 787,105 788,101" stroke="rgb(255,255,255)" fill="rgb(255,255,255)"/>
<polygon points="788,134 786,138 786,143 789,155 789,158 788,162 788,162 790,158 790,153 787,141 787,138 788,134" stroke="rgb(0,0,0)" fill="rgb(0,0,0)"/>
<polygon points="792,134 790,138 790,143 793,155 793,158 792,162 792,162 794,158 794,153 791,141 791,138 792,134" stroke="rgb(0,0,0)" fill="rgb(0,0,0)"/>
<polygon points="792,134 790,138 790,143 793,155 793,158 792,162 788,162 790,158 790,153 787,141 787,138 788,134" stroke="rgb(255,255,255)" fill="rgb(255,255,255)"/>
<polygon points="788,167 786,171 786,176 789,188 789,191 788,195 788,195 790,191 790,186 787,174 787,171 788,167" stroke="rgb(0,0,0)" fill="rgb(0,0,0)"/>
<polygon points="792,167 790,171 790,176 793,188 793,191 792,195 792,195 794,191 794,186 791,174 791,171 792,167" stroke="rgb(0,0,0)" fill="rgb(0,0,0)"/>
<polygon points="792,167 790,171 790,176 793,188 793,191 792,195 788,195 790,191 790,186 787,174 787,171 788,167" stroke="rgb(255,255,255)" fill="rgb(255,255,255)"/>
<polygon points="788,200 786,204 786,209 789,221 789,224 788,228 788,228 790,224 790,219 787,207 787,204 788,200" stroke="rgb(0,0,0)" fill="rgb(0,0,0)"/>
<polygon points="792,200 790,204 790,209 793,221 793,224 792,228 792,228 794,224 794,219 791,207 791,204 792,200" stroke="rgb(0,0,0)" fill="rgb(0,0,0)"/>
<polygon points="792,200 790,204 790,209 793,221 793,224 792,228 788,228 790,224 790,219 787,207 787,204 788,200" stroke="rgb(255,255,255)" fill="rgb(255,255,255)"/>
<polygon points="788,233 786,237 786,242 789,254 789,257 788,261 788,261 790,257 790,252 787,240 787,237 788,233" stroke="rgb(0,0,0)" fill="rgb(0,0,0)"/>
<polygon points="792,233 790,237 790,242 793,254 793,257 792,261 792,261 794,257 794,252 791,240 791,237 792,233" stroke="rgb(0,0,0)" fill="rgb(0,0,0)"/>
<polygon points="792,233 790,237 790,242 793,254 793,257 792,261 788,261 790,257 790,252 787,240 787,237 788,233" stroke="rgb(255,255,255)" fill="rgb(255,255,255)"/>
<polygon points="788,266 786,270 786,275 789,287 789,290 788,294 788,294 790,290 790,285 787,273 787,270 788,266" stroke="rgb(0,0,0)" fill="rgb(0,0,0)"/>
<polygon points="792,266 790,270 790,275 793,287 793,290 792,294 792,294 794,290 794,285 791,273 791,270 792,266" stroke="rgb(0,0,0)" fill="rgb(0,0,0)"/>
<polygon points="792,266 790,270 790,275 793,287 793,290 792,294 788,294 790,290 790,285 787,273 787,270 788,266" stroke="rgb(255,255,255)" fill="rgb(255,255,255)"/>
<polygon points="788,299 786,303 786,308 789,320 789,323 788,327 788,327 790,323 790,318 787,306 787,303 788,299" stroke="rgb(0,0,0)" fill="rgb(0,0,0)"/>
<polygon points="792,299 790,303 790,308 793,320 793,323 792,327 792,327 794,323 794,318 791,306 791,303 792,299" stroke="rgb(0,0,0)" fill="rgb(0,0,0)"/>
<polygon points="792,299 790,303 790,308 793,320 793,323 792,327 788,327 790,323 790,318 787,306 787,303 788,299" stroke="rgb(255,255,255)" fill="rgb(255,255,255)"/>
<polygon points="788,332 786,336 786,341 789,353 789,356 788,360 788,360 790,356 790,351 787,339 787,336 788,332" stroke="rgb(0,0,0)" fill="rgb(0,0,0)"/>
<polygon points="792,332 790,336 790,341 793,353 793,356 792,360 792,360 794,356 794,351 791,339 791,336 792,332" stroke="rgb(0,0,0)" fill="rgb(0,0,0)"/>
<polygon points="792,332 790,336 790,341 793,353 793,356 792,360 788,360 790,356 790,351 787,339 787,336 788,332" stroke="rgb(255,255,255)" fill="rgb(255,255,255)"/>
<polygon points="788,365 786,369 786,374 789,386 789,389 788,393 788,393 790,389 790,384 787,372 787,369 788,365" stroke="rgb(0,0,0)" fill="rgb(0,0,0)"/>
<polygon points="792,365 790,369 790,374 793,386 793,389 792,393 792,393 794,389 794,384 791,372 791,369 792,365" stroke="rgb(0,0,0)" fill="rgb(0,0,0)"/>
<polygon points="792,365 790,369 790,374 793,386 793,389 792,393 788,393 790,389 790,384 787,372 787,369 788,365" stroke="rgb(255,255,255)" fill="rgb(255,255,255)"/>
<text x="797" y="17" font-family="Arial,sans-serif" font-size="10pt" fill="rgb(0,0,0)" text-anchor="start" xml:space="preserve">access latency</text>
</g>
</g>
</svg>
