<?xml version="1.0" standalone="no"?>
<!DOCTYPE svg PUBLIC "-//W3C//DTD SVG 1.1//EN"
 "http://www.w3.org/Graphics/SVG/1.1/DTD/svg11.dtd">
<svg xmlns="http://www.w3.org/2000/svg" version="1.1"
 width="100%" height="100%">
<g stroke-width="1pt" stroke-linecap="round" stroke-linejoin="round">
<defs>
  <clipPath id="window0">
    <path d="M0 0 L 121 0 L 121 528 L 0 528 Z"/>
  </clipPath>
</defs>
<g clip-path = "url(#window0)">
<text x="117" y="55" font-family="Verdana,sans-serif" font-size="10pt" fill="rgb(0,0,0)" text-anchor="end" xml:space="preserve">clk</text>
<text x="117" y="88" font-family="Verdana,sans-serif" font-size="10pt" fill="rgb(0,0,0)" text-anchor="end" xml:space="preserve">state</text>
<text x="117" y="121" font-family="Verdana,sans-serif" font-size="10pt" fill="rgb(0,0,0)" text-anchor="end" xml:space="preserve">pkt_data[15:0]</text>
<text x="117" y="154" font-family="Verdana,sans-serif" font-size="10pt" fill="rgb(0,0,0)" text-anchor="end" xml:space="preserve">rd_mux_sel</text>
<text x="117" y="187" font-family="Verdana,sans-serif" font-size="10pt" fill="rgb(0,0,0)" text-anchor="end" xml:space="preserve">flush</text>
<text x="117" y="220" font-family="Verdana,sans-serif" font-size="10pt" fill="rgb(0,0,0)" text-anchor="end" xml:space="preserve">req</text>
<text x="117" y="253" font-family="Verdana,sans-serif" font-size="10pt" fill="rgb(0,0,0)" text-anchor="end" xml:space="preserve">rd</text>
<text x="117" y="286" font-family="Verdana,sans-serif" font-size="10pt" fill="rgb(0,0,0)" text-anchor="end" xml:space="preserve">address[15:0]</text>
<text x="117" y="319" font-family="Verdana,sans-serif" font-size="10pt" fill="rgb(0,0,0)" text-anchor="end" xml:space="preserve">space_id[11:0]</text>
<text x="117" y="352" font-family="Verdana,sans-serif" font-size="10pt" fill="rgb(0,0,0)" text-anchor="end" xml:space="preserve">internal_ack</text>
<text x="117" y="385" font-family="Verdana,sans-serif" font-size="10pt" fill="rgb(0,0,0)" text-anchor="end" xml:space="preserve">ack</text>
<text x="117" y="418" font-family="Verdana,sans-serif" font-size="10pt" fill="rgb(0,0,0)" text-anchor="end" xml:space="preserve"></text>
<text x="117" y="451" font-family="Verdana,sans-serif" font-size="10pt" fill="rgb(0,0,0)" text-anchor="end" xml:space="preserve">state</text>
<text x="117" y="484" font-family="Verdana,sans-serif" font-size="10pt" fill="rgb(0,0,0)" text-anchor="end" xml:space="preserve">internal_ack</text>
<text x="117" y="517" font-family="Verdana,sans-serif" font-size="10pt" fill="rgb(0,0,0)" text-anchor="end" xml:space="preserve">ack</text>
</g>
<defs>
  <clipPath id="window1">
    <path d="M121 0 L 1344 0 L 1344 528 L 121 528 Z"/>
  </clipPath>
</defs>
<g clip-path = "url(#window1)">
<line x1="193" y1="0" x2="193" y2="528" stroke="rgb(192,192,192)" stroke-dasharray="12, 4" fill="none"/>
<line x1="336" y1="0" x2="336" y2="528" stroke="rgb(192,192,192)" stroke-dasharray="12, 4" fill="none"/>
<line x1="479" y1="0" x2="479" y2="528" stroke="rgb(192,192,192)" stroke-dasharray="12, 4" fill="none"/>
<line x1="623" y1="0" x2="623" y2="528" stroke="rgb(192,192,192)" stroke-dasharray="12, 4" fill="none"/>
<line x1="766" y1="0" x2="766" y2="528" stroke="rgb(192,192,192)" stroke-dasharray="12, 4" fill="none"/>
<line x1="910" y1="0" x2="910" y2="528" stroke="rgb(192,192,192)" stroke-dasharray="12, 4" fill="none"/>
<line x1="1053" y1="0" x2="1053" y2="528" stroke="rgb(192,192,192)" stroke-dasharray="12, 4" fill="none"/>
<line x1="1196" y1="0" x2="1196" y2="528" stroke="rgb(192,192,192)" stroke-dasharray="12, 4" fill="none"/>
<line x1="1340" y1="0" x2="1340" y2="528" stroke="rgb(192,192,192)" stroke-dasharray="12, 4" fill="none"/>
<line x1="120" y1="62" x2="190" y2="62" stroke="rgb(0,0,0)" fill="none"/>
<line x1="190" y1="62" x2="196" y2="37" stroke="rgb(0,0,0)" fill="none"/>
<line x1="196" y1="37" x2="261" y2="37" stroke="rgb(0,0,0)" fill="none"/>
<line x1="261" y1="37" x2="267" y2="62" stroke="rgb(0,0,0)" fill="none"/>
<line x1="267" y1="62" x2="333" y2="62" stroke="rgb(0,0,0)" fill="none"/>
<line x1="333" y1="62" x2="339" y2="37" stroke="rgb(0,0,0)" fill="none"/>
<line x1="339" y1="37" x2="405" y2="37" stroke="rgb(0,0,0)" fill="none"/>
<line x1="405" y1="37" x2="411" y2="62" stroke="rgb(0,0,0)" fill="none"/>
<line x1="411" y1="62" x2="476" y2="62" stroke="rgb(0,0,0)" fill="none"/>
<line x1="476" y1="62" x2="482" y2="37" stroke="rgb(0,0,0)" fill="none"/>
<line x1="482" y1="37" x2="548" y2="37" stroke="rgb(0,0,0)" fill="none"/>
<line x1="548" y1="37" x2="554" y2="62" stroke="rgb(0,0,0)" fill="none"/>
<line x1="554" y1="62" x2="620" y2="62" stroke="rgb(0,0,0)" fill="none"/>
<line x1="620" y1="62" x2="626" y2="37" stroke="rgb(0,0,0)" fill="none"/>
<line x1="626" y1="37" x2="692" y2="37" stroke="rgb(0,0,0)" fill="none"/>
<line x1="692" y1="37" x2="698" y2="62" stroke="rgb(0,0,0)" fill="none"/>
<line x1="698" y1="62" x2="763" y2="62" stroke="rgb(0,0,0)" fill="none"/>
<line x1="763" y1="62" x2="769" y2="37" stroke="rgb(0,0,0)" fill="none"/>
<line x1="769" y1="37" x2="835" y2="37" stroke="rgb(0,0,0)" fill="none"/>
<line x1="835" y1="37" x2="841" y2="62" stroke="rgb(0,0,0)" fill="none"/>
<line x1="841" y1="62" x2="907" y2="62" stroke="rgb(0,0,0)" fill="none"/>
<line x1="907" y1="62" x2="913" y2="37" stroke="rgb(0,0,0)" fill="none"/>
<line x1="913" y1="37" x2="978" y2="37" stroke="rgb(0,0,0)" fill="none"/>
<line x1="978" y1="37" x2="984" y2="62" stroke="rgb(0,0,0)" fill="none"/>
<line x1="984" y1="62" x2="1050" y2="62" stroke="rgb(0,0,0)" fill="none"/>
<line x1="1050" y1="62" x2="1056" y2="37" stroke="rgb(0,0,0)" fill="none"/>
<line x1="1056" y1="37" x2="1122" y2="37" stroke="rgb(0,0,0)" fill="none"/>
<line x1="1122" y1="37" x2="1128" y2="62" stroke="rgb(0,0,0)" fill="none"/>
<line x1="1128" y1="62" x2="1193" y2="62" stroke="rgb(0,0,0)" fill="none"/>
<line x1="1193" y1="62" x2="1199" y2="37" stroke="rgb(0,0,0)" fill="none"/>
<line x1="1199" y1="37" x2="1265" y2="37" stroke="rgb(0,0,0)" fill="none"/>
<line x1="1265" y1="37" x2="1271" y2="62" stroke="rgb(0,0,0)" fill="none"/>
<line x1="1271" y1="62" x2="1337" y2="62" stroke="rgb(0,0,0)" fill="none"/>
<line x1="1337" y1="62" x2="1343" y2="37" stroke="rgb(0,0,0)" fill="none"/>
<line x1="1343" y1="37" x2="1344" y2="37" stroke="rgb(0,0,0)" fill="none"/>
<text x="211" y="89" font-family="Arial,sans-serif" font-size="10pt" fill="rgb(0,0,0)" text-anchor="start" xml:space="preserve">space</text>
<line x1="121" y1="95" x2="333" y2="95" stroke="rgb(0,0,0)" fill="none"/>
<line x1="121" y1="70" x2="333" y2="70" stroke="rgb(0,0,0)" fill="none"/>
<text x="211" y="89" font-family="Arial,sans-serif" font-size="10pt" fill="rgb(0,0,0)" text-anchor="start" xml:space="preserve">space</text>
<line x1="333" y1="95" x2="339" y2="70" stroke="rgb(0,0,0)" fill="none"/>
<line x1="333" y1="70" x2="339" y2="95" stroke="rgb(0,0,0)" fill="none"/>
<line x1="339" y1="95" x2="475" y2="95" stroke="rgb(0,0,0)" fill="none"/>
<line x1="339" y1="70" x2="475" y2="70" stroke="rgb(0,0,0)" fill="none"/>
<text x="384" y="89" font-family="Arial,sans-serif" font-size="10pt" fill="rgb(0,0,0)" text-anchor="start" xml:space="preserve">address</text>
<line x1="475" y1="95" x2="481" y2="70" stroke="rgb(0,0,0)" fill="none"/>
<line x1="475" y1="70" x2="481" y2="95" stroke="rgb(0,0,0)" fill="none"/>
<line x1="481" y1="95" x2="620" y2="95" stroke="rgb(0,0,0)" fill="none"/>
<line x1="481" y1="70" x2="620" y2="70" stroke="rgb(0,0,0)" fill="none"/>
<text x="519" y="89" font-family="Arial,sans-serif" font-size="10pt" fill="rgb(0,0,0)" text-anchor="start" xml:space="preserve">wr_data_hi</text>
<line x1="620" y1="95" x2="626" y2="70" stroke="rgb(0,0,0)" fill="none"/>
<line x1="620" y1="70" x2="626" y2="95" stroke="rgb(0,0,0)" fill="none"/>
<line x1="626" y1="95" x2="763" y2="95" stroke="rgb(0,0,0)" fill="none"/>
<line x1="626" y1="70" x2="763" y2="70" stroke="rgb(0,0,0)" fill="none"/>
<text x="663" y="89" font-family="Arial,sans-serif" font-size="10pt" fill="rgb(0,0,0)" text-anchor="start" xml:space="preserve">wr_data_lo</text>
<line x1="763" y1="95" x2="769" y2="70" stroke="rgb(0,0,0)" fill="none"/>
<line x1="763" y1="70" x2="769" y2="95" stroke="rgb(0,0,0)" fill="none"/>
<line x1="769" y1="95" x2="1050" y2="95" stroke="rgb(0,0,0)" fill="none"/>
<line x1="769" y1="70" x2="1050" y2="70" stroke="rgb(0,0,0)" fill="none"/>
<text x="884" y="89" font-family="Arial,sans-serif" font-size="10pt" fill="rgb(0,0,0)" text-anchor="start" xml:space="preserve">wait_ack</text>
<line x1="1050" y1="95" x2="1056" y2="70" stroke="rgb(0,0,0)" fill="none"/>
<line x1="1050" y1="70" x2="1056" y2="95" stroke="rgb(0,0,0)" fill="none"/>
<line x1="1056" y1="95" x2="1340" y2="95" stroke="rgb(0,0,0)" fill="none"/>
<line x1="1056" y1="70" x2="1340" y2="70" stroke="rgb(0,0,0)" fill="none"/>
<text x="1179" y="89" font-family="Arial,sans-serif" font-size="10pt" fill="rgb(0,0,0)" text-anchor="start" xml:space="preserve">space</text>
<polygon points="122,128 191,128 191,103 122,103" fill="rgb(128,128,128)"/>
<line x1="121" y1="128" x2="190" y2="128" stroke="rgb(0,0,0)" fill="none"/>
<line x1="121" y1="103" x2="190" y2="103" stroke="rgb(0,0,0)" fill="none"/>
<polygon points="193,115 190,128 190,103" fill="rgb(128,128,128)"/>
<line x1="190" y1="128" x2="196" y2="103" stroke="rgb(0,0,0)" fill="none"/>
<line x1="190" y1="103" x2="196" y2="128" stroke="rgb(0,0,0)" fill="none"/>
<line x1="196" y1="128" x2="333" y2="128" stroke="rgb(0,0,0)" fill="none"/>
<line x1="196" y1="103" x2="333" y2="103" stroke="rgb(0,0,0)" fill="none"/>
<text x="247" y="122" font-family="Arial,sans-serif" font-size="10pt" fill="rgb(0,0,0)" text-anchor="start" xml:space="preserve">space</text>
<line x1="333" y1="128" x2="339" y2="103" stroke="rgb(0,0,0)" fill="none"/>
<line x1="333" y1="103" x2="339" y2="128" stroke="rgb(0,0,0)" fill="none"/>
<line x1="339" y1="128" x2="476" y2="128" stroke="rgb(0,0,0)" fill="none"/>
<line x1="339" y1="103" x2="476" y2="103" stroke="rgb(0,0,0)" fill="none"/>
<text x="384" y="122" font-family="Arial,sans-serif" font-size="10pt" fill="rgb(0,0,0)" text-anchor="start" xml:space="preserve">address</text>
<line x1="476" y1="128" x2="482" y2="103" stroke="rgb(0,0,0)" fill="none"/>
<line x1="476" y1="103" x2="482" y2="128" stroke="rgb(0,0,0)" fill="none"/>
<line x1="482" y1="128" x2="620" y2="128" stroke="rgb(0,0,0)" fill="none"/>
<line x1="482" y1="103" x2="620" y2="103" stroke="rgb(0,0,0)" fill="none"/>
<text x="520" y="122" font-family="Arial,sans-serif" font-size="10pt" fill="rgb(0,0,0)" text-anchor="start" xml:space="preserve">wr_data_hi</text>
<line x1="620" y1="128" x2="626" y2="103" stroke="rgb(0,0,0)" fill="none"/>
<line x1="620" y1="103" x2="626" y2="128" stroke="rgb(0,0,0)" fill="none"/>
<line x1="626" y1="128" x2="762" y2="128" stroke="rgb(0,0,0)" fill="none"/>
<line x1="626" y1="103" x2="762" y2="103" stroke="rgb(0,0,0)" fill="none"/>
<text x="663" y="122" font-family="Arial,sans-serif" font-size="10pt" fill="rgb(0,0,0)" text-anchor="start" xml:space="preserve">wr_data_lo</text>
<polygon points="765,115 769,128 769,103" fill="rgb(128,128,128)"/>
<line x1="762" y1="128" x2="768" y2="103" stroke="rgb(0,0,0)" fill="none"/>
<line x1="762" y1="103" x2="768" y2="128" stroke="rgb(0,0,0)" fill="none"/>
<polygon points="769,128 908,128 908,103 769,103" fill="rgb(128,128,128)"/>
<line x1="768" y1="128" x2="907" y2="128" stroke="rgb(0,0,0)" fill="none"/>
<line x1="768" y1="103" x2="907" y2="103" stroke="rgb(0,0,0)" fill="none"/>
<polygon points="910,115 907,128 907,103" fill="rgb(128,128,128)"/>
<line x1="907" y1="128" x2="913" y2="103" stroke="rgb(0,0,0)" fill="none"/>
<line x1="907" y1="103" x2="913" y2="128" stroke="rgb(0,0,0)" fill="none"/>
<line x1="913" y1="128" x2="1051" y2="128" stroke="rgb(0,0,0)" fill="none"/>
<line x1="913" y1="103" x2="1051" y2="103" stroke="rgb(0,0,0)" fill="none"/>
<text x="968" y="122" font-family="Arial,sans-serif" font-size="10pt" fill="rgb(0,0,0)" text-anchor="start" xml:space="preserve">flush</text>
<polygon points="1054,115 1058,128 1058,103" fill="rgb(128,128,128)"/>
<line x1="1051" y1="128" x2="1057" y2="103" stroke="rgb(0,0,0)" fill="none"/>
<line x1="1051" y1="103" x2="1057" y2="128" stroke="rgb(0,0,0)" fill="none"/>
<polygon points="1058,128 1199,128 1199,103 1058,103" fill="rgb(128,128,128)"/>
<line x1="1057" y1="128" x2="1198" y2="128" stroke="rgb(0,0,0)" fill="none"/>
<line x1="1057" y1="103" x2="1198" y2="103" stroke="rgb(0,0,0)" fill="none"/>
<line x1="121" y1="161" x2="763" y2="161" stroke="rgb(0,0,255)" fill="none"/>
<line x1="763" y1="161" x2="769" y2="136" stroke="rgb(0,0,255)" fill="none"/>
<line x1="769" y1="136" x2="1193" y2="136" stroke="rgb(0,0,255)" fill="none"/>
<line x1="1193" y1="136" x2="1199" y2="161" stroke="rgb(0,0,255)" fill="none"/>
<line x1="1199" y1="161" x2="1340" y2="161" stroke="rgb(0,0,255)" fill="none"/>
<line x1="121" y1="194" x2="1050" y2="194" stroke="rgb(255,0,0)" fill="none"/>
<line x1="1050" y1="194" x2="1056" y2="169" stroke="rgb(255,0,0)" fill="none"/>
<line x1="1056" y1="169" x2="1340" y2="169" stroke="rgb(255,0,0)" fill="none"/>
<line x1="121" y1="227" x2="763" y2="227" stroke="rgb(0,0,255)" fill="none"/>
<line x1="763" y1="227" x2="769" y2="202" stroke="rgb(0,0,255)" fill="none"/>
<line x1="769" y1="202" x2="1050" y2="202" stroke="rgb(0,0,255)" fill="none"/>
<line x1="1050" y1="202" x2="1056" y2="227" stroke="rgb(0,0,255)" fill="none"/>
<line x1="1056" y1="227" x2="1340" y2="227" stroke="rgb(0,0,255)" fill="none"/>
<line x1="121" y1="260" x2="763" y2="260" stroke="rgb(0,0,255)" fill="none"/>
<line x1="763" y1="260" x2="769" y2="235" stroke="rgb(0,0,255)" fill="none"/>
<line x1="769" y1="235" x2="1050" y2="235" stroke="rgb(0,0,255)" fill="none"/>
<line x1="1050" y1="235" x2="1056" y2="260" stroke="rgb(0,0,255)" fill="none"/>
<line x1="1056" y1="260" x2="1340" y2="260" stroke="rgb(0,0,255)" fill="none"/>
<polygon points="122,293 477,293 477,268 122,268" fill="rgb(128,128,128)"/>
<line x1="121" y1="293" x2="476" y2="293" stroke="rgb(0,0,255)" fill="none"/>
<line x1="121" y1="268" x2="476" y2="268" stroke="rgb(0,0,255)" fill="none"/>
<polygon points="479,280 476,293 476,268" fill="rgb(128,128,128)"/>
<line x1="476" y1="293" x2="482" y2="268" stroke="rgb(0,0,255)" fill="none"/>
<line x1="476" y1="268" x2="482" y2="293" stroke="rgb(0,0,255)" fill="none"/>
<line x1="482" y1="293" x2="1050" y2="293" stroke="rgb(0,0,255)" fill="none"/>
<line x1="482" y1="268" x2="1050" y2="268" stroke="rgb(0,0,255)" fill="none"/>
<polygon points="1053,280 1057,293 1057,268" fill="rgb(128,128,128)"/>
<line x1="1050" y1="293" x2="1056" y2="268" stroke="rgb(0,0,255)" fill="none"/>
<line x1="1050" y1="268" x2="1056" y2="293" stroke="rgb(0,0,255)" fill="none"/>
<polygon points="1057,293 1341,293 1341,268 1057,268" fill="rgb(128,128,128)"/>
<line x1="1056" y1="293" x2="1340" y2="293" stroke="rgb(0,0,255)" fill="none"/>
<line x1="1056" y1="268" x2="1340" y2="268" stroke="rgb(0,0,255)" fill="none"/>
<polygon points="122,326 477,326 477,301 122,301" fill="rgb(128,128,128)"/>
<line x1="121" y1="326" x2="476" y2="326" stroke="rgb(0,0,255)" fill="none"/>
<line x1="121" y1="301" x2="476" y2="301" stroke="rgb(0,0,255)" fill="none"/>
<polygon points="479,313 476,326 476,301" fill="rgb(128,128,128)"/>
<line x1="476" y1="326" x2="482" y2="301" stroke="rgb(0,0,255)" fill="none"/>
<line x1="476" y1="301" x2="482" y2="326" stroke="rgb(0,0,255)" fill="none"/>
<line x1="482" y1="326" x2="1050" y2="326" stroke="rgb(0,0,255)" fill="none"/>
<line x1="482" y1="301" x2="1050" y2="301" stroke="rgb(0,0,255)" fill="none"/>
<polygon points="1053,313 1057,326 1057,301" fill="rgb(128,128,128)"/>
<line x1="1050" y1="326" x2="1056" y2="301" stroke="rgb(0,0,255)" fill="none"/>
<line x1="1050" y1="301" x2="1056" y2="326" stroke="rgb(0,0,255)" fill="none"/>
<polygon points="1057,326 1339,326 1339,301 1057,301" fill="rgb(128,128,128)"/>
<line x1="1056" y1="326" x2="1338" y2="326" stroke="rgb(0,0,255)" fill="none"/>
<line x1="1056" y1="301" x2="1338" y2="301" stroke="rgb(0,0,255)" fill="none"/>
<line x1="121" y1="359" x2="907" y2="359" stroke="rgb(0,255,0)" fill="none"/>
<line x1="907" y1="359" x2="913" y2="334" stroke="rgb(0,255,0)" fill="none"/>
<line x1="913" y1="334" x2="1050" y2="334" stroke="rgb(0,255,0)" fill="none"/>
<line x1="1050" y1="334" x2="1056" y2="359" stroke="rgb(0,255,0)" fill="none"/>
<line x1="1056" y1="359" x2="1340" y2="359" stroke="rgb(0,255,0)" fill="none"/>
<line x1="121" y1="392" x2="1050" y2="392" stroke="rgb(0,0,0)" fill="none"/>
<line x1="1050" y1="392" x2="1056" y2="367" stroke="rgb(0,0,0)" fill="none"/>
<line x1="1056" y1="367" x2="1193" y2="367" stroke="rgb(0,0,0)" fill="none"/>
<line x1="1193" y1="367" x2="1199" y2="392" stroke="rgb(0,0,0)" fill="none"/>
<line x1="1199" y1="392" x2="1341" y2="392" stroke="rgb(0,0,0)" fill="none"/>
<text x="211" y="452" font-family="Arial,sans-serif" font-size="10pt" fill="rgb(0,0,0)" text-anchor="start" xml:space="preserve">space</text>
<line x1="121" y1="458" x2="333" y2="458" stroke="rgb(0,0,0)" fill="none"/>
<line x1="121" y1="433" x2="333" y2="433" stroke="rgb(0,0,0)" fill="none"/>
<text x="211" y="452" font-family="Arial,sans-serif" font-size="10pt" fill="rgb(0,0,0)" text-anchor="start" xml:space="preserve">space</text>
<line x1="333" y1="458" x2="339" y2="433" stroke="rgb(0,0,0)" fill="none"/>
<line x1="333" y1="433" x2="339" y2="458" stroke="rgb(0,0,0)" fill="none"/>
<line x1="339" y1="458" x2="475" y2="458" stroke="rgb(0,0,0)" fill="none"/>
<line x1="339" y1="433" x2="475" y2="433" stroke="rgb(0,0,0)" fill="none"/>
<text x="384" y="452" font-family="Arial,sans-serif" font-size="10pt" fill="rgb(0,0,0)" text-anchor="start" xml:space="preserve">address</text>
<line x1="475" y1="458" x2="481" y2="433" stroke="rgb(0,0,0)" fill="none"/>
<line x1="475" y1="433" x2="481" y2="458" stroke="rgb(0,0,0)" fill="none"/>
<line x1="481" y1="458" x2="620" y2="458" stroke="rgb(0,0,0)" fill="none"/>
<line x1="481" y1="433" x2="620" y2="433" stroke="rgb(0,0,0)" fill="none"/>
<text x="519" y="452" font-family="Arial,sans-serif" font-size="10pt" fill="rgb(0,0,0)" text-anchor="start" xml:space="preserve">wr_data_hi</text>
<line x1="620" y1="458" x2="626" y2="433" stroke="rgb(0,0,0)" fill="none"/>
<line x1="620" y1="433" x2="626" y2="458" stroke="rgb(0,0,0)" fill="none"/>
<line x1="626" y1="458" x2="763" y2="458" stroke="rgb(0,0,0)" fill="none"/>
<line x1="626" y1="433" x2="763" y2="433" stroke="rgb(0,0,0)" fill="none"/>
<text x="663" y="452" font-family="Arial,sans-serif" font-size="10pt" fill="rgb(0,0,0)" text-anchor="start" xml:space="preserve">wr_data_lo</text>
<line x1="763" y1="458" x2="769" y2="433" stroke="rgb(0,0,0)" fill="none"/>
<line x1="763" y1="433" x2="769" y2="458" stroke="rgb(0,0,0)" fill="none"/>
<line x1="769" y1="458" x2="1050" y2="458" stroke="rgb(0,0,0)" fill="none"/>
<line x1="769" y1="433" x2="1050" y2="433" stroke="rgb(0,0,0)" fill="none"/>
<text x="884" y="452" font-family="Arial,sans-serif" font-size="10pt" fill="rgb(0,0,0)" text-anchor="start" xml:space="preserve">wait_ack</text>
<line x1="1050" y1="458" x2="1056" y2="433" stroke="rgb(0,0,0)" fill="none"/>
<line x1="1050" y1="433" x2="1056" y2="458" stroke="rgb(0,0,0)" fill="none"/>
<line x1="1056" y1="458" x2="1193" y2="458" stroke="rgb(0,0,0)" fill="none"/>
<line x1="1056" y1="433" x2="1193" y2="433" stroke="rgb(0,0,0)" fill="none"/>
<text x="1111" y="452" font-family="Arial,sans-serif" font-size="10pt" fill="rgb(0,0,0)" text-anchor="start" xml:space="preserve">flush</text>
<line x1="1193" y1="458" x2="1199" y2="433" stroke="rgb(0,0,0)" fill="none"/>
<line x1="1193" y1="433" x2="1199" y2="458" stroke="rgb(0,0,0)" fill="none"/>
<line x1="1199" y1="458" x2="1337" y2="458" stroke="rgb(0,0,0)" fill="none"/>
<line x1="1199" y1="433" x2="1337" y2="433" stroke="rgb(0,0,0)" fill="none"/>
<text x="1249" y="452" font-family="Arial,sans-serif" font-size="10pt" fill="rgb(0,0,0)" text-anchor="start" xml:space="preserve">space</text>
<line x1="121" y1="491" x2="1050" y2="491" stroke="rgb(255,128,0)" fill="none"/>
<line x1="1050" y1="491" x2="1056" y2="466" stroke="rgb(255,128,0)" fill="none"/>
<line x1="1056" y1="466" x2="1192" y2="466" stroke="rgb(255,128,0)" fill="none"/>
<line x1="1192" y1="466" x2="1198" y2="491" stroke="rgb(255,128,0)" fill="none"/>
<line x1="1198" y1="491" x2="1344" y2="491" stroke="rgb(255,128,0)" fill="none"/>
<line x1="121" y1="524" x2="1050" y2="524" stroke="rgb(0,0,0)" fill="none"/>
<line x1="1050" y1="524" x2="1056" y2="499" stroke="rgb(0,0,0)" fill="none"/>
<line x1="1056" y1="499" x2="1193" y2="499" stroke="rgb(0,0,0)" fill="none"/>
<line x1="1193" y1="499" x2="1199" y2="524" stroke="rgb(0,0,0)" fill="none"/>
<line x1="1199" y1="524" x2="1341" y2="524" stroke="rgb(0,0,0)" fill="none"/>
<polygon points="841,35 839,39 839,44 842,56 842,59 841,63 841,63 843,59 843,54 840,42 840,39 841,35" stroke="rgb(0,0,0)" fill="rgb(0,0,0)"/>
<polygon points="845,35 843,39 843,44 846,56 846,59 845,63 845,63 847,59 847,54 844,42 844,39 845,35" stroke="rgb(0,0,0)" fill="rgb(0,0,0)"/>
<polygon points="845,35 843,39 843,44 846,56 846,59 845,63 841,63 843,59 843,54 840,42 840,39 841,35" stroke="rgb(255,255,255)" fill="rgb(255,255,255)"/>
<polygon points="841,68 839,72 839,77 842,89 842,92 841,96 841,96 843,92 843,87 840,75 840,72 841,68" stroke="rgb(0,0,0)" fill="rgb(0,0,0)"/>
<polygon points="845,68 843,72 843,77 846,89 846,92 845,96 845,96 847,92 847,87 844,75 844,72 845,68" stroke="rgb(0,0,0)" fill="rgb(0,0,0)"/>
<polygon points="845,68 843,72 843,77 846,89 846,92 845,96 841,96 843,92 843,87 840,75 840,72 841,68" stroke="rgb(255,255,255)" fill="rgb(255,255,255)"/>
<polygon points="841,101 839,105 839,110 842,122 842,125 841,129 841,129 843,125 843,120 840,108 840,105 841,101" stroke="rgb(0,0,0)" fill="rgb(0,0,0)"/>
<polygon points="845,101 843,105 843,110 846,122 846,125 845,129 845,129 847,125 847,120 844,108 844,105 845,101" stroke="rgb(0,0,0)" fill="rgb(0,0,0)"/>
<polygon points="845,101 843,105 843,110 846,122 846,125 845,129 841,129 843,125 843,120 840,108 840,105 841,101" stroke="rgb(255,255,255)" fill="rgb(255,255,255)"/>
<polygon points="841,134 839,138 839,143 842,155 842,158 841,162 841,162 843,158 843,153 840,141 840,138 841,134" stroke="rgb(0,0,0)" fill="rgb(0,0,0)"/>
<polygon points="845,134 843,138 843,143 846,155 846,158 845,162 845,162 847,158 847,153 844,141 844,138 845,134" stroke="rgb(0,0,0)" fill="rgb(0,0,0)"/>
<polygon points="845,134 843,138 843,143 846,155 846,158 845,162 841,162 843,158 843,153 840,141 840,138 841,134" stroke="rgb(255,255,255)" fill="rgb(255,255,255)"/>
<polygon points="841,167 839,171 839,176 842,188 842,191 841,195 841,195 843,191 843,186 840,174 840,171 841,167" stroke="rgb(0,0,0)" fill="rgb(0,0,0)"/>
<polygon points="845,167 843,171 843,176 846,188 846,191 845,195 845,195 847,191 847,186 844,174 844,171 845,167" stroke="rgb(0,0,0)" fill="rgb(0,0,0)"/>
<polygon points="845,167 843,171 843,176 846,188 846,191 845,195 841,195 843,191 843,186 840,174 840,171 841,167" stroke="rgb(255,255,255)" fill="rgb(255,255,255)"/>
<polygon points="841,200 839,204 839,209 842,221 842,224 841,228 841,228 843,224 843,219 840,207 840,204 841,200" stroke="rgb(0,0,0)" fill="rgb(0,0,0)"/>
<polygon points="845,200 843,204 843,209 846,221 846,224 845,228 845,228 847,224 847,219 844,207 844,204 845,200" stroke="rgb(0,0,0)" fill="rgb(0,0,0)"/>
<polygon points="845,200 843,204 843,209 846,221 846,224 845,228 841,228 843,224 843,219 840,207 840,204 841,200" stroke="rgb(255,255,255)" fill="rgb(255,255,255)"/>
<polygon points="841,233 839,237 839,242 842,254 842,257 841,261 841,261 843,257 843,252 840,240 840,237 841,233" stroke="rgb(0,0,0)" fill="rgb(0,0,0)"/>
<polygon points="845,233 843,237 843,242 846,254 846,257 845,261 845,261 847,257 847,252 844,240 844,237 845,233" stroke="rgb(0,0,0)" fill="rgb(0,0,0)"/>
<polygon points="845,233 843,237 843,242 846,254 846,257 845,261 841,261 843,257 843,252 840,240 840,237 841,233" stroke="rgb(255,255,255)" fill="rgb(255,255,255)"/>
<polygon points="841,266 839,270 839,275 842,287 842,290 841,294 841,294 843,290 843,285 840,273 840,270 841,266" stroke="rgb(0,0,0)" fill="rgb(0,0,0)"/>
<polygon points="845,266 843,270 843,275 846,287 846,290 845,294 845,294 847,290 847,285 844,273 844,270 845,266" stroke="rgb(0,0,0)" fill="rgb(0,0,0)"/>
<polygon points="845,266 843,270 843,275 846,287 846,290 845,294 841,294 843,290 843,285 840,273 840,270 841,266" stroke="rgb(255,255,255)" fill="rgb(255,255,255)"/>
<polygon points="841,299 839,303 839,308 842,320 842,323 841,327 841,327 843,323 843,318 840,306 840,303 841,299" stroke="rgb(0,0,0)" fill="rgb(0,0,0)"/>
<polygon points="845,299 843,303 843,308 846,320 846,323 845,327 845,327 847,323 847,318 844,306 844,303 845,299" stroke="rgb(0,0,0)" fill="rgb(0,0,0)"/>
<polygon points="845,299 843,303 843,308 846,320 846,323 845,327 841,327 843,323 843,318 840,306 840,303 841,299" stroke="rgb(255,255,255)" fill="rgb(255,255,255)"/>
<polygon points="841,332 839,336 839,341 842,353 842,356 841,360 841,360 843,356 843,351 840,339 840,336 841,332" stroke="rgb(0,0,0)" fill="rgb(0,0,0)"/>
<polygon points="845,332 843,336 843,341 846,353 846,356 845,360 845,360 847,356 847,351 844,339 844,336 845,332" stroke="rgb(0,0,0)" fill="rgb(0,0,0)"/>
<polygon points="845,332 843,336 843,341 846,353 846,356 845,360 841,360 843,356 843,351 840,339 840,336 841,332" stroke="rgb(255,255,255)" fill="rgb(255,255,255)"/>
<polygon points="841,365 839,369 839,374 842,386 842,389 841,393 841,393 843,389 843,384 840,372 840,369 841,365" stroke="rgb(0,0,0)" fill="rgb(0,0,0)"/>
<polygon points="845,365 843,369 843,374 846,386 846,389 845,393 845,393 847,389 847,384 844,372 844,369 845,365" stroke="rgb(0,0,0)" fill="rgb(0,0,0)"/>
<polygon points="845,365 843,369 843,374 846,386 846,389 845,393 841,393 843,389 843,384 840,372 840,369 841,365" stroke="rgb(255,255,255)" fill="rgb(255,255,255)"/>
<polygon points="841,431 839,435 839,440 842,452 842,455 841,459 841,459 843,455 843,450 840,438 840,435 841,431" stroke="rgb(0,0,0)" fill="rgb(0,0,0)"/>
<polygon points="845,431 843,435 843,440 846,452 846,455 845,459 845,459 847,455 847,450 844,438 844,435 845,431" stroke="rgb(0,0,0)" fill="rgb(0,0,0)"/>
<polygon points="845,431 843,435 843,440 846,452 846,455 845,459 841,459 843,455 843,450 840,438 840,435 841,431" stroke="rgb(255,255,255)" fill="rgb(255,255,255)"/>
<polygon points="841,464 839,468 839,473 842,485 842,488 841,492 841,492 843,488 843,483 840,471 840,468 841,464" stroke="rgb(0,0,0)" fill="rgb(0,0,0)"/>
<polygon points="845,464 843,468 843,473 846,485 846,488 845,492 845,492 847,488 847,483 844,471 844,468 845,464" stroke="rgb(0,0,0)" fill="rgb(0,0,0)"/>
<polygon points="845,464 843,468 843,473 846,485 846,488 845,492 841,492 843,488 843,483 840,471 840,468 841,464" stroke="rgb(255,255,255)" fill="rgb(255,255,255)"/>
<polygon points="841,497 839,501 839,506 842,518 842,521 841,525 841,525 843,521 843,516 840,504 840,501 841,497" stroke="rgb(0,0,0)" fill="rgb(0,0,0)"/>
<polygon points="845,497 843,501 843,506 846,518 846,521 845,525 845,525 847,521 847,516 844,504 844,501 845,497" stroke="rgb(0,0,0)" fill="rgb(0,0,0)"/>
<polygon points="845,497 843,501 843,506 846,518 846,521 845,525 841,525 843,521 843,516 840,504 840,501 841,497" stroke="rgb(255,255,255)" fill="rgb(255,255,255)"/>
<text x="850" y="17" font-family="Arial,sans-serif" font-size="10pt" fill="rgb(0,0,0)" text-anchor="start" xml:space="preserve">access latency</text>
<text x="912" y="367" font-family="Arial,sans-serif" font-size="10pt" fill="rgb(0,0,0)" text-anchor="start" xml:space="preserve">completion races with flush, </text>
<text x="912" y="383" font-family="Arial,sans-serif" font-size="10pt" fill="rgb(0,0,0)" text-anchor="start" xml:space="preserve">completion wins.</text>
<text x="956" y="475" font-family="Arial,sans-serif" font-size="10pt" fill="rgb(0,0,0)" text-anchor="start" xml:space="preserve">completion comes too late, </text>
<text x="956" y="491" font-family="Arial,sans-serif" font-size="10pt" fill="rgb(0,0,0)" text-anchor="start" xml:space="preserve">flush wins.</text>
</g>
</g>
</svg>
