<?xml version="1.0" standalone="no"?>
<!DOCTYPE svg PUBLIC "-//W3C//DTD SVG 1.1//EN"
 "http://www.w3.org/Graphics/SVG/1.1/DTD/svg11.dtd">
<svg xmlns="http://www.w3.org/2000/svg" version="1.1"
 width="100%" height="100%">
<g stroke-width="1pt" stroke-linecap="round" stroke-linejoin="round">
<defs>
  <clipPath id="window0">
    <path d="M0 0 L 122 0 L 122 396 L 0 396 Z"/>
  </clipPath>
</defs>
<g clip-path = "url(#window0)">
<text x="118" y="22" font-family="Verdana,sans-serif" font-size="10pt" fill="rgb(0,0,0)" text-anchor="end" xml:space="preserve">clk</text>
<text x="118" y="55" font-family="Verdana,sans-serif" font-size="10pt" fill="rgb(0,0,0)" text-anchor="end" xml:space="preserve">state</text>
<text x="118" y="88" font-family="Verdana,sans-serif" font-size="10pt" fill="rgb(0,0,0)" text-anchor="end" xml:space="preserve">pkt_data[15:0]</text>
<text x="118" y="154" font-family="Verdana,sans-serif" font-size="10pt" fill="rgb(0,0,0)" text-anchor="end" xml:space="preserve">wd_xxx___sel</text>
<text x="118" y="187" font-family="Verdana,sans-serif" font-size="10pt" fill="rgb(0,0,0)" text-anchor="end" xml:space="preserve">req</text>
<text x="118" y="220" font-family="Verdana,sans-serif" font-size="10pt" fill="rgb(0,0,0)" text-anchor="end" xml:space="preserve">rd</text>
<text x="118" y="253" font-family="Verdana,sans-serif" font-size="10pt" fill="rgb(0,0,0)" text-anchor="end" xml:space="preserve">rd_mux_sel</text>
<text x="118" y="319" font-family="Verdana,sans-serif" font-size="10pt" fill="rgb(0,0,0)" text-anchor="end" xml:space="preserve">rd_data_mux</text>
<text x="118" y="352" font-family="Verdana,sans-serif" font-size="10pt" fill="rgb(0,0,0)" text-anchor="end" xml:space="preserve">ack</text>
<text x="118" y="385" font-family="Verdana,sans-serif" font-size="10pt" fill="rgb(0,0,0)" text-anchor="end" xml:space="preserve">rd_data</text>
</g>
<defs>
  <clipPath id="window1">
    <path d="M122 0 L 1344 0 L 1344 396 L 122 396 Z"/>
  </clipPath>
</defs>
<g clip-path = "url(#window1)">
<line x1="233" y1="0" x2="233" y2="396" stroke="rgb(192,192,192)" stroke-dasharray="12, 4" fill="none"/>
<line x1="454" y1="0" x2="454" y2="396" stroke="rgb(192,192,192)" stroke-dasharray="12, 4" fill="none"/>
<line x1="675" y1="0" x2="675" y2="396" stroke="rgb(192,192,192)" stroke-dasharray="12, 4" fill="none"/>
<line x1="897" y1="0" x2="897" y2="396" stroke="rgb(192,192,192)" stroke-dasharray="12, 4" fill="none"/>
<line x1="1118" y1="0" x2="1118" y2="396" stroke="rgb(192,192,192)" stroke-dasharray="12, 4" fill="none"/>
<line x1="1340" y1="0" x2="1340" y2="396" stroke="rgb(192,192,192)" stroke-dasharray="12, 4" fill="none"/>
<line x1="121" y1="29" x2="230" y2="29" stroke="rgb(0,0,0)" fill="none"/>
<line x1="230" y1="29" x2="236" y2="4" stroke="rgb(0,0,0)" fill="none"/>
<line x1="236" y1="4" x2="340" y2="4" stroke="rgb(0,0,0)" fill="none"/>
<line x1="340" y1="4" x2="346" y2="29" stroke="rgb(0,0,0)" fill="none"/>
<line x1="346" y1="29" x2="451" y2="29" stroke="rgb(0,0,0)" fill="none"/>
<line x1="451" y1="29" x2="457" y2="4" stroke="rgb(0,0,0)" fill="none"/>
<line x1="457" y1="4" x2="562" y2="4" stroke="rgb(0,0,0)" fill="none"/>
<line x1="562" y1="4" x2="568" y2="29" stroke="rgb(0,0,0)" fill="none"/>
<line x1="568" y1="29" x2="672" y2="29" stroke="rgb(0,0,0)" fill="none"/>
<line x1="672" y1="29" x2="678" y2="4" stroke="rgb(0,0,0)" fill="none"/>
<line x1="678" y1="4" x2="783" y2="4" stroke="rgb(0,0,0)" fill="none"/>
<line x1="783" y1="4" x2="789" y2="29" stroke="rgb(0,0,0)" fill="none"/>
<line x1="789" y1="29" x2="894" y2="29" stroke="rgb(0,0,0)" fill="none"/>
<line x1="894" y1="29" x2="900" y2="4" stroke="rgb(0,0,0)" fill="none"/>
<line x1="900" y1="4" x2="1005" y2="4" stroke="rgb(0,0,0)" fill="none"/>
<line x1="1005" y1="4" x2="1011" y2="29" stroke="rgb(0,0,0)" fill="none"/>
<line x1="1011" y1="29" x2="1115" y2="29" stroke="rgb(0,0,0)" fill="none"/>
<line x1="1115" y1="29" x2="1121" y2="4" stroke="rgb(0,0,0)" fill="none"/>
<line x1="1121" y1="4" x2="1226" y2="4" stroke="rgb(0,0,0)" fill="none"/>
<line x1="1226" y1="4" x2="1232" y2="29" stroke="rgb(0,0,0)" fill="none"/>
<line x1="1232" y1="29" x2="1337" y2="29" stroke="rgb(0,0,0)" fill="none"/>
<line x1="1337" y1="29" x2="1343" y2="4" stroke="rgb(0,0,0)" fill="none"/>
<line x1="1343" y1="4" x2="1344" y2="4" stroke="rgb(0,0,0)" fill="none"/>
<text x="270" y="56" font-family="Arial,sans-serif" font-size="10pt" fill="rgb(0,0,0)" text-anchor="start" xml:space="preserve">space</text>
<line x1="122" y1="62" x2="451" y2="62" stroke="rgb(0,0,0)" fill="none"/>
<line x1="122" y1="37" x2="451" y2="37" stroke="rgb(0,0,0)" fill="none"/>
<text x="270" y="56" font-family="Arial,sans-serif" font-size="10pt" fill="rgb(0,0,0)" text-anchor="start" xml:space="preserve">space</text>
<line x1="451" y1="62" x2="457" y2="37" stroke="rgb(0,0,0)" fill="none"/>
<line x1="451" y1="37" x2="457" y2="62" stroke="rgb(0,0,0)" fill="none"/>
<line x1="457" y1="62" x2="670" y2="62" stroke="rgb(0,0,0)" fill="none"/>
<line x1="457" y1="37" x2="670" y2="37" stroke="rgb(0,0,0)" fill="none"/>
<text x="540" y="56" font-family="Arial,sans-serif" font-size="10pt" fill="rgb(0,0,0)" text-anchor="start" xml:space="preserve">address</text>
<line x1="670" y1="62" x2="676" y2="37" stroke="rgb(0,0,0)" fill="none"/>
<line x1="670" y1="37" x2="676" y2="62" stroke="rgb(0,0,0)" fill="none"/>
<line x1="676" y1="62" x2="1115" y2="62" stroke="rgb(0,0,0)" fill="none"/>
<line x1="676" y1="37" x2="1115" y2="37" stroke="rgb(0,0,0)" fill="none"/>
<text x="870" y="56" font-family="Arial,sans-serif" font-size="10pt" fill="rgb(0,0,0)" text-anchor="start" xml:space="preserve">wait_ack</text>
<line x1="1115" y1="62" x2="1121" y2="37" stroke="rgb(0,0,0)" fill="none"/>
<line x1="1115" y1="37" x2="1121" y2="62" stroke="rgb(0,0,0)" fill="none"/>
<line x1="1121" y1="62" x2="1340" y2="62" stroke="rgb(0,0,0)" fill="none"/>
<line x1="1121" y1="37" x2="1340" y2="37" stroke="rgb(0,0,0)" fill="none"/>
<text x="1211" y="56" font-family="Arial,sans-serif" font-size="10pt" fill="rgb(0,0,0)" text-anchor="start" xml:space="preserve">space</text>
<polygon points="123,95 231,95 231,70 123,70" fill="rgb(128,128,128)"/>
<line x1="122" y1="95" x2="230" y2="95" stroke="rgb(0,0,0)" fill="none"/>
<line x1="122" y1="70" x2="230" y2="70" stroke="rgb(0,0,0)" fill="none"/>
<polygon points="233,82 230,95 230,70" fill="rgb(128,128,128)"/>
<line x1="230" y1="95" x2="236" y2="70" stroke="rgb(0,0,0)" fill="none"/>
<line x1="230" y1="70" x2="236" y2="95" stroke="rgb(0,0,0)" fill="none"/>
<line x1="236" y1="95" x2="451" y2="95" stroke="rgb(0,0,0)" fill="none"/>
<line x1="236" y1="70" x2="451" y2="70" stroke="rgb(0,0,0)" fill="none"/>
<text x="326" y="89" font-family="Arial,sans-serif" font-size="10pt" fill="rgb(0,0,0)" text-anchor="start" xml:space="preserve">space</text>
<line x1="451" y1="95" x2="457" y2="70" stroke="rgb(0,0,0)" fill="none"/>
<line x1="451" y1="70" x2="457" y2="95" stroke="rgb(0,0,0)" fill="none"/>
<line x1="457" y1="95" x2="672" y2="95" stroke="rgb(0,0,0)" fill="none"/>
<line x1="457" y1="70" x2="672" y2="70" stroke="rgb(0,0,0)" fill="none"/>
<text x="541" y="89" font-family="Arial,sans-serif" font-size="10pt" fill="rgb(0,0,0)" text-anchor="start" xml:space="preserve">address</text>
<polygon points="675,82 679,95 679,70" fill="rgb(128,128,128)"/>
<line x1="672" y1="95" x2="678" y2="70" stroke="rgb(0,0,0)" fill="none"/>
<line x1="672" y1="70" x2="678" y2="95" stroke="rgb(0,0,0)" fill="none"/>
<polygon points="679,95 1332,95 1332,70 679,70" fill="rgb(128,128,128)"/>
<line x1="678" y1="95" x2="1331" y2="95" stroke="rgb(0,0,0)" fill="none"/>
<line x1="678" y1="70" x2="1331" y2="70" stroke="rgb(0,0,0)" fill="none"/>
<line x1="122" y1="161" x2="566" y2="161" stroke="rgb(0,0,0)" fill="none"/>
<line x1="566" y1="161" x2="572" y2="136" stroke="rgb(0,0,0)" fill="none"/>
<line x1="572" y1="136" x2="759" y2="136" stroke="rgb(0,0,0)" fill="none"/>
<polygon points="759,136 765,161 766,161 766,136 765,136" fill="rgb(128,128,128)"/>
<line x1="759" y1="136" x2="765" y2="161" stroke="rgb(0,0,0)" fill="none"/>
<line x1="759" y1="136" x2="765" y2="136" stroke="rgb(0,0,0)" fill="none"/>
<polygon points="766,161 1341,161 1341,136 766,136" fill="rgb(128,128,128)"/>
<line x1="765" y1="161" x2="1340" y2="161" stroke="rgb(0,0,0)" fill="none"/>
<line x1="765" y1="136" x2="1340" y2="136" stroke="rgb(0,0,0)" fill="none"/>
<line x1="122" y1="194" x2="672" y2="194" stroke="rgb(0,0,255)" fill="none"/>
<line x1="672" y1="194" x2="678" y2="169" stroke="rgb(0,0,255)" fill="none"/>
<line x1="678" y1="169" x2="1115" y2="169" stroke="rgb(0,0,255)" fill="none"/>
<line x1="1115" y1="169" x2="1121" y2="194" stroke="rgb(0,0,255)" fill="none"/>
<line x1="1121" y1="194" x2="1340" y2="194" stroke="rgb(0,0,255)" fill="none"/>
<line x1="122" y1="227" x2="672" y2="227" stroke="rgb(0,0,255)" fill="none"/>
<line x1="672" y1="227" x2="678" y2="202" stroke="rgb(0,0,255)" fill="none"/>
<line x1="678" y1="202" x2="1115" y2="202" stroke="rgb(0,0,255)" fill="none"/>
<line x1="1115" y1="202" x2="1121" y2="227" stroke="rgb(0,0,255)" fill="none"/>
<line x1="1121" y1="227" x2="1340" y2="227" stroke="rgb(0,0,255)" fill="none"/>
<line x1="122" y1="260" x2="672" y2="260" stroke="rgb(0,0,255)" fill="none"/>
<line x1="672" y1="260" x2="678" y2="235" stroke="rgb(0,0,255)" fill="none"/>
<line x1="678" y1="235" x2="1115" y2="235" stroke="rgb(0,0,255)" fill="none"/>
<line x1="1115" y1="235" x2="1121" y2="260" stroke="rgb(0,0,255)" fill="none"/>
<line x1="1121" y1="260" x2="1340" y2="260" stroke="rgb(0,0,255)" fill="none"/>
<polygon points="123,326 793,326 793,301 123,301" fill="rgb(128,128,128)"/>
<line x1="122" y1="326" x2="792" y2="326" stroke="rgb(0,0,0)" fill="none"/>
<line x1="122" y1="301" x2="792" y2="301" stroke="rgb(0,0,0)" fill="none"/>
<polygon points="795,313 792,326 792,301" fill="rgb(128,128,128)"/>
<line x1="792" y1="326" x2="798" y2="301" stroke="rgb(0,0,0)" fill="none"/>
<line x1="792" y1="301" x2="798" y2="326" stroke="rgb(0,0,0)" fill="none"/>
<line x1="798" y1="326" x2="1005" y2="326" stroke="rgb(0,0,0)" fill="none"/>
<line x1="798" y1="301" x2="1005" y2="301" stroke="rgb(0,0,0)" fill="none"/>
<polygon points="1008,313 1012,326 1012,301" fill="rgb(128,128,128)"/>
<line x1="1005" y1="326" x2="1011" y2="301" stroke="rgb(0,0,0)" fill="none"/>
<line x1="1005" y1="301" x2="1011" y2="326" stroke="rgb(0,0,0)" fill="none"/>
<polygon points="1012,326 1341,326 1341,301 1012,301" fill="rgb(128,128,128)"/>
<line x1="1011" y1="326" x2="1340" y2="326" stroke="rgb(0,0,0)" fill="none"/>
<line x1="1011" y1="301" x2="1340" y2="301" stroke="rgb(0,0,0)" fill="none"/>
<line x1="122" y1="359" x2="894" y2="359" stroke="rgb(0,0,255)" fill="none"/>
<line x1="894" y1="359" x2="900" y2="334" stroke="rgb(0,0,255)" fill="none"/>
<line x1="900" y1="334" x2="1115" y2="334" stroke="rgb(0,0,255)" fill="none"/>
<line x1="1115" y1="334" x2="1121" y2="359" stroke="rgb(0,0,255)" fill="none"/>
<line x1="1121" y1="359" x2="1342" y2="359" stroke="rgb(0,0,255)" fill="none"/>
<polygon points="123,392 895,392 895,367 123,367" fill="rgb(128,128,128)"/>
<line x1="122" y1="392" x2="894" y2="392" stroke="rgb(0,0,255)" fill="none"/>
<line x1="122" y1="367" x2="894" y2="367" stroke="rgb(0,0,255)" fill="none"/>
<polygon points="897,379 894,392 894,367" fill="rgb(128,128,128)"/>
<line x1="894" y1="392" x2="900" y2="367" stroke="rgb(0,0,255)" fill="none"/>
<line x1="894" y1="367" x2="900" y2="392" stroke="rgb(0,0,255)" fill="none"/>
<line x1="900" y1="392" x2="1115" y2="392" stroke="rgb(0,0,255)" fill="none"/>
<line x1="900" y1="367" x2="1115" y2="367" stroke="rgb(0,0,255)" fill="none"/>
<polygon points="1118,379 1122,392 1122,367" fill="rgb(128,128,128)"/>
<line x1="1115" y1="392" x2="1121" y2="367" stroke="rgb(0,0,255)" fill="none"/>
<line x1="1115" y1="367" x2="1121" y2="392" stroke="rgb(0,0,255)" fill="none"/>
<polygon points="1122,392 1345,392 1345,367 1122,367" fill="rgb(128,128,128)"/>
<line x1="1121" y1="392" x2="1344" y2="392" stroke="rgb(0,0,255)" fill="none"/>
<line x1="1121" y1="367" x2="1344" y2="367" stroke="rgb(0,0,255)" fill="none"/>
<line x1="675" y1="264" x2="675" y2="294" stroke="rgb(0,0,0)" fill="none"/>
<line x1="675" y1="280" x2="698" y2="280" stroke="rgb(0,0,0)" fill="none"/>
<line x1="771" y1="280" x2="795" y2="280" stroke="rgb(0,0,0)" fill="none"/>
<line x1="795" y1="266" x2="795" y2="297" stroke="rgb(0,0,0)" fill="none"/>
<polygon points="681,280 676,278 676,282" stroke="rgb(0,0,0)" fill="rgb(0,0,0)"/>
<polygon points="795,280 790,278 790,282" stroke="rgb(0,0,0)" fill="rgb(0,0,0)"/>
<text x="698" y="285" font-family="Arial,sans-serif" font-size="10pt" fill="rgb(0,0,0)" text-anchor="start" xml:space="preserve">MUX latency</text>
<line x1="454" y1="66" x2="454" y2="129" stroke="rgb(0,0,0)" fill="none"/>
<line x1="454" y1="115" x2="467" y2="115" stroke="rgb(0,0,0)" fill="none"/>
<line x1="555" y1="115" x2="569" y2="115" stroke="rgb(0,0,0)" fill="none"/>
<line x1="569" y1="101" x2="569" y2="132" stroke="rgb(0,0,0)" fill="none"/>
<polygon points="460,115 455,113 455,117" stroke="rgb(0,0,0)" fill="rgb(0,0,0)"/>
<polygon points="569,115 564,113 564,117" stroke="rgb(0,0,0)" fill="rgb(0,0,0)"/>
<text x="467" y="120" font-family="Arial,sans-serif" font-size="10pt" fill="rgb(0,0,0)" text-anchor="start" xml:space="preserve">decode latency</text>
</g>
</g>
</svg>
